<svg width="138" height="107" viewBox="0 0 138 107" fill="none" xmlns="http://www.w3.org/2000/svg">
<path fill-rule="evenodd" clip-rule="evenodd" d="M65.3416 85.6402C80.9529 85.6402 92.1992 80.3711 101.883 70.5368C103.295 69.1024 107.911 80.3225 106.538 82.0558C101.565 88.3356 101.565 83.0985 99.9459 85.7709C98.7535 87.7396 99.4274 90.9659 98.1511 92.3258C95.611 95.0322 89.92 93.1222 89.5714 93.0585C89.1363 92.979 86.8231 99.1956 84.7667 100.187C82.5261 101.268 78.6801 97.522 76.3428 97.522C74.0056 97.522 74.2089 103.307 68.9993 103.307C68.9993 103.307 66.8966 100.843 64.4995 102.075C62.1023 103.307 59.0937 105.114 56.4118 104.183C54.5115 103.523 55.0261 98.9592 52.7751 98.0304C50.8427 97.2331 48.0508 97.9944 46.023 96.8008C44.0029 95.612 44.7171 91.9765 42.5122 90.4719C40.7162 89.2463 37.192 90.8507 35.3547 89.302C33.9411 88.1105 33.1846 81.6113 33.6958 80.0413C34.207 78.4714 27.8241 79.1529 26.0456 77.1693C24.4001 75.334 27.6607 69.5593 30.2392 65.3547C30.2392 65.3547 48.4564 85.6402 65.3416 85.6402Z" fill="#A3FBE0"/>
<path d="M102.86 70.5368L114.402 59.0677" stroke="#133599" stroke-width="2.4" stroke-linecap="round"/>
<path d="M71.3369 38.9041L106.08 74.6082C108.411 76.9792 108.381 80.7929 106.014 83.1274C103.647 85.4598 99.84 85.4298 97.5095 83.0588L80.6696 66.239" stroke="#133599" stroke-width="2.4" stroke-linecap="round"/>
<path d="M98.2179 83.8065C100.548 86.1775 100.518 89.9912 98.1516 92.3258C95.7847 94.6582 91.9776 94.6282 89.6492 92.2572L71.7607 74.6227" stroke="#133599" stroke-width="2.4" stroke-linecap="round"/>
<path d="M87.4102 89.9383C89.7407 92.3093 89.7086 96.123 87.3439 98.4575C84.977 100.79 81.1699 100.76 78.8394 98.3889L67.0029 85.7708" stroke="#133599" stroke-width="2.4" stroke-linecap="round"/>
<path d="M29.4857 65.7281L22.6055 58.6581" stroke="#133599" stroke-width="2.4" stroke-linecap="round"/>
<path d="M65.3418 101.509C67.6723 103.88 71.4773 103.91 73.8463 101.578C76.211 99.2432 76.2431 95.4295 73.9126 93.0585" stroke="#133599" stroke-width="2.4" stroke-linecap="round"/>
<path fill-rule="evenodd" clip-rule="evenodd" d="M58.6796 19.2544L20.5914 60.4035L1.7998 42.9492L20.4223 22.8301L39.888 1.8L58.6796 19.2544Z" stroke="#133599" stroke-width="2.4" stroke-linecap="round"/>
<path fill-rule="evenodd" clip-rule="evenodd" d="M81.4316 20.9409L116.967 61.3504L136.199 44.3805L120.449 26.4739L100.662 3.97098L81.4316 20.9409Z" stroke="#133599" stroke-width="2.4" stroke-linecap="round"/>
<path d="M54.1592 23.6497L58.4371 27.2726C61.9574 26.0893 71.5726 22.7064 74.5151 23.1588" stroke="#133599" stroke-width="2.4"/>
<path d="M82.6427 27.708C82.6427 27.708 76.5372 19.0773 66.8643 25.5278L39.9277 49.6792C44.8006 55.2186 53.2387 55.7546 58.7707 50.8733L71.3369 38.9048" stroke="#133599" stroke-width="2.4" stroke-linecap="round"/>
<path fill-rule="evenodd" clip-rule="evenodd" d="M55.4908 103.906V103.906C52.9891 102.065 52.452 98.5381 54.2903 96.0321L57.0017 92.3406C58.84 89.8345 62.3603 89.2965 64.862 91.1379C67.3637 92.9816 67.9009 96.5059 66.0604 99.0119L63.3533 102.703C61.5107 105.209 57.9947 105.748 55.4908 103.906Z" stroke="#133599" stroke-width="2.4" stroke-linecap="round"/>
<path fill-rule="evenodd" clip-rule="evenodd" d="M46.0233 96.8008V96.8008C43.2134 94.7321 42.6099 90.7705 44.675 87.9558L50.6992 79.7474C52.7644 76.9326 56.717 76.3302 59.529 78.3989C62.3388 80.4677 62.9402 84.4293 60.8751 87.244L54.853 95.4503C52.7858 98.2672 48.8331 98.8696 46.0233 96.8008Z" stroke="#133599" stroke-width="2.4" stroke-linecap="round"/>
<path fill-rule="evenodd" clip-rule="evenodd" d="M35.7606 89.2422V89.2422C32.9507 87.1735 32.3472 83.2119 34.4124 80.3993L40.4365 72.1909C42.5017 69.374 46.4564 68.7716 49.2663 70.8403C52.0761 72.909 52.6796 76.8707 50.6124 79.6854L44.5903 87.8938C42.5231 90.7085 38.5704 91.3109 35.7606 89.2422Z" stroke="#133599" stroke-width="2.4" stroke-linecap="round"/>
<path fill-rule="evenodd" clip-rule="evenodd" d="M28.1179 78.6408V78.6408C25.3081 76.5721 24.7025 72.6104 26.7697 69.7978L29.6866 65.8233C31.7517 63.0086 35.7065 62.4019 38.5142 64.4728C41.3262 66.5415 41.9297 70.501 39.8624 73.3179L36.9477 77.2902C34.8804 80.1071 30.9278 80.7095 28.1179 78.6408Z" stroke="#133599" stroke-width="2.4" stroke-linecap="round"/>
<path fill-rule="evenodd" clip-rule="evenodd" d="M121.553 41.0813C121.407 43.3923 119.419 45.1458 117.112 45.0022C114.805 44.8543 113.052 42.8628 113.2 40.5518C113.346 38.2408 115.334 36.4873 117.641 36.633C119.948 36.7788 121.698 38.7704 121.553 41.0813Z" stroke="#133599" stroke-width="2.4" stroke-linecap="round"/>
<path d="M102.86 70.5368L114.402 59.0677" stroke="#133599" stroke-width="2.4" stroke-linecap="round"/>
<path d="M71.3369 38.9041L106.08 74.6082C108.411 76.9792 108.381 80.7929 106.014 83.1274C103.647 85.4598 99.84 85.4298 97.5095 83.0588L80.6696 66.239" stroke="#133599" stroke-width="2.4" stroke-linecap="round"/>
<path d="M98.2179 83.8065C100.548 86.1775 100.518 89.9912 98.1516 92.3258C95.7847 94.6582 91.9776 94.6282 89.6492 92.2572L71.7607 74.6227" stroke="#133599" stroke-width="2.4" stroke-linecap="round"/>
<path d="M87.4102 89.9383C89.7407 92.3093 89.7086 96.123 87.3439 98.4575C84.977 100.79 81.1699 100.76 78.8394 98.3889L67.0029 85.7708" stroke="#133599" stroke-width="2.4" stroke-linecap="round"/>
<path d="M29.4857 65.7281L22.6055 58.6581" stroke="#133599" stroke-width="2.4" stroke-linecap="round"/>
<path d="M65.3418 101.509C67.6723 103.88 71.4773 103.91 73.8463 101.578C76.211 99.2432 76.2431 95.4295 73.9126 93.0585" stroke="#133599" stroke-width="2.4" stroke-linecap="round"/>
<path fill-rule="evenodd" clip-rule="evenodd" d="M58.6796 19.2544L20.5914 60.4035L1.7998 42.9492L20.4223 22.8301L39.888 1.8L58.6796 19.2544Z" stroke="#133599" stroke-width="2.4" stroke-linecap="round"/>
<path fill-rule="evenodd" clip-rule="evenodd" d="M81.4316 20.9409L116.967 61.3504L136.199 44.3805L120.449 26.4739L100.662 3.97098L81.4316 20.9409Z" stroke="#133599" stroke-width="2.4" stroke-linecap="round"/>
<path d="M54.1592 23.6497L58.4371 27.2726C61.9574 26.0893 71.5726 22.7064 74.5151 23.1588" stroke="#133599" stroke-width="2.4"/>
<path d="M82.6427 27.708C82.6427 27.708 76.5372 19.0773 66.8643 25.5278L39.9277 49.6792C44.8006 55.2186 53.2387 55.7546 58.7707 50.8733L71.3369 38.9048" stroke="#133599" stroke-width="2.4" stroke-linecap="round"/>
<path fill-rule="evenodd" clip-rule="evenodd" d="M121.553 41.0813C121.407 43.3923 119.419 45.1458 117.112 45.0022C114.805 44.8543 113.052 42.8628 113.2 40.5518C113.346 38.2408 115.334 36.4873 117.641 36.633C119.948 36.7788 121.698 38.7704 121.553 41.0813Z" stroke="#133599" stroke-width="2.4" stroke-linecap="round"/>
</svg>
