<svg width="144" height="144" viewBox="0 0 144 144" fill="none" xmlns="http://www.w3.org/2000/svg">
<ellipse cx="71.9996" cy="140.4" rx="38.4" ry="3.6" fill="#E7EBF5"/>
<path d="M13.6777 44.8297L81.6012 45.231" stroke="#133599" stroke-width="2.4" stroke-linecap="round"/>
<path d="M117.518 26.914C117.518 26.914 103.701 20.6602 102.357 36.1794C101.011 51.7015 115.929 48.2401 117.398 47.1214" stroke="#133599" stroke-width="2.4" stroke-linecap="round"/>
<path d="M98.2314 34.6181H113.605" stroke="#133599" stroke-width="2.4" stroke-linecap="round"/>
<path d="M98.3369 39.7538H110.591" stroke="#133599" stroke-width="2.4" stroke-linecap="round"/>
<path fill-rule="evenodd" clip-rule="evenodd" d="M134.124 36.9574C134.124 49.9545 123.589 60.4923 110.589 60.4923C97.5916 60.4923 87.0566 49.9545 87.0566 36.9574C87.0566 23.9602 97.5916 13.4224 110.589 13.4224C123.589 13.4224 134.124 23.9602 134.124 36.9574Z" stroke="#133599" stroke-width="2.4" stroke-linecap="round"/>
<path d="M56.0811 67.1808L63.2884 75.6605L82.7927 59.5493" stroke="#133599" stroke-width="2.4" stroke-linecap="round"/>
<path fill-rule="evenodd" clip-rule="evenodd" d="M100.42 88.802H33.2162C23.9451 88.802 16.0973 82.6934 13.4785 74.2848V95.1896C13.4785 99.9404 17.3298 103.792 22.0807 103.792H112.457C117.203 103.792 121.057 99.9404 121.057 95.1896V71.3358C120.963 71.5066 120.846 68.8166 120.744 68.9817C118.996 78.6314 110.57 88.802 100.42 88.802Z" fill="#A3FBE0"/>
<path d="M121.109 65.4504V95.8341C121.109 100.591 117.255 104.445 112.501 104.445H22.0335C17.277 104.445 13.4229 100.591 13.4229 95.8341V31.6224C13.4229 26.8659 17.277 23.0117 22.0335 23.0117H84.1359" stroke="#133599" stroke-width="2.4" stroke-linecap="round"/>
</svg>
