<svg width="144" height="144" viewBox="0 0 144 144" fill="none" xmlns="http://www.w3.org/2000/svg">
<ellipse cx="71.9996" cy="140.4" rx="38.4" ry="3.6" fill="#E7EBF5"/>
<path fill-rule="evenodd" clip-rule="evenodd" d="M120.63 81.5464C120.63 90.4332 112.328 97.6332 102.051 97.6332H41.4981C30.8344 97.6332 22.2193 90.4345 22.2178 81.5487L22.219 96.1324C22.2482 109.41 22.9686 110.443 40.7371 110.469L100.058 110.47L100.008 110.411C118.34 110.402 120.63 109.449 120.63 94.383V81.5464ZM92.4558 97.6582C92.4124 98.5882 95.1187 104.504 99.194 109.46L92.4558 97.6582Z" fill="#A3FBE0"/>
<path d="M101.909 19.8366V38.4617" stroke="#133599" stroke-width="2.4" stroke-linecap="round"/>
<path d="M40.7137 19.8366V38.4617" stroke="#133599" stroke-width="2.4" stroke-linecap="round"/>
<path d="M22.2031 51.4286H120.658" stroke="#133599" stroke-width="2.4"/>
<path fill-rule="evenodd" clip-rule="evenodd" d="M57.2343 73.2086H53.457C52.2772 73.2086 51.3223 72.251 51.3223 71.0712V67.2965C51.3223 66.1141 52.2772 65.1591 53.457 65.1591H57.2343C58.4141 65.1591 59.3717 66.1141 59.3717 67.2965V71.0712C59.3717 72.251 58.4141 73.2086 57.2343 73.2086Z" stroke="#133599" stroke-width="2.4" stroke-linecap="round"/>
<path fill-rule="evenodd" clip-rule="evenodd" d="M73.1992 73.2086H69.4218C68.2447 73.2086 67.2871 72.251 67.2871 71.0712V67.2965C67.2871 66.1141 68.2447 65.1591 69.4218 65.1591H73.1992C74.379 65.1591 75.3365 66.1141 75.3365 67.2965V71.0712C75.3365 72.251 74.379 73.2086 73.1992 73.2086Z" stroke="#133599" stroke-width="2.4" stroke-linecap="round"/>
<path fill-rule="evenodd" clip-rule="evenodd" d="M89.1601 73.2086H85.3827C84.203 73.2086 83.248 72.251 83.248 71.0712V67.2965C83.248 66.1141 84.203 65.1591 85.3827 65.1591H89.1601C90.3399 65.1591 91.2975 66.1141 91.2975 67.2965V71.0712C91.2975 72.251 90.3399 73.2086 89.1601 73.2086Z" stroke="#133599" stroke-width="2.4" stroke-linecap="round"/>
<path fill-rule="evenodd" clip-rule="evenodd" d="M57.2343 87.3156H53.457C52.2772 87.3156 51.3223 86.358 51.3223 85.1782V81.4035C51.3223 80.2211 52.2772 79.2661 53.457 79.2661H57.2343C58.4141 79.2661 59.3717 80.2211 59.3717 81.4035V85.1782C59.3717 86.358 58.4141 87.3156 57.2343 87.3156Z" stroke="#133599" stroke-width="2.4" stroke-linecap="round"/>
<path fill-rule="evenodd" clip-rule="evenodd" d="M73.1992 87.3156H69.4218C68.2447 87.3156 67.2871 86.358 67.2871 85.1782V81.4035C67.2871 80.2211 68.2447 79.2661 69.4218 79.2661H73.1992C74.379 79.2661 75.3365 80.2211 75.3365 81.4035V85.1782C75.3365 86.358 74.379 87.3156 73.1992 87.3156Z" stroke="#133599" stroke-width="2.4" stroke-linecap="round"/>
<path fill-rule="evenodd" clip-rule="evenodd" d="M89.1601 87.3156H85.3827C84.203 87.3156 83.248 86.358 83.248 85.1782V81.4035C83.248 80.2211 84.203 79.2661 85.3827 79.2661H89.1601C90.3399 79.2661 91.2975 80.2211 91.2975 81.4035V85.1782C91.2975 86.358 90.3399 87.3156 89.1601 87.3156Z" stroke="#133599" stroke-width="2.4" stroke-linecap="round"/>
<rect x="22.457" y="32.0571" width="98.4" height="77.8286" rx="9.6" stroke="#133599" stroke-width="2.4"/>
</svg>
