<svg width="25" height="24" viewBox="0 0 25 24" fill="none" xmlns="http://www.w3.org/2000/svg">
<path fill-rule="evenodd" clip-rule="evenodd" d="M16.2301 14.3183H15.4891L15.2265 14.065C16.352 12.7518 16.9336 10.9603 16.6147 9.05624C16.1738 6.44869 13.9977 4.36639 11.3714 4.04749C7.4038 3.55974 4.06462 6.89891 4.55237 10.8665C4.87128 13.4928 6.95357 15.6689 9.56112 16.1098C11.4652 16.4287 13.2567 15.8471 14.5699 14.7216L14.8231 14.9842V15.7252L18.8095 19.7116C19.1941 20.0961 19.8225 20.0961 20.2071 19.7116C20.5916 19.327 20.5916 18.6986 20.2071 18.314L16.2301 14.3183ZM10.6023 14.3183C8.26673 14.3183 6.38141 12.4329 6.38141 10.0974C6.38141 7.76184 8.26673 5.87653 10.6023 5.87653C12.9378 5.87653 14.8231 7.76184 14.8231 10.0974C14.8231 12.4329 12.9378 14.3183 10.6023 14.3183Z" fill="#133599"/>
</svg>
