<svg width="28" height="28" viewBox="0 0 28 28" fill="none" xmlns="http://www.w3.org/2000/svg">
<path fill-rule="evenodd" clip-rule="evenodd" d="M19.4719 13.5428H16.6957L12.7465 8.27714C12.6157 8.10268 12.4103 8 12.1922 8C11.9741 8 11.7688 8.10268 11.6379 8.27714L7.68872 13.5428H4.91257C4.13499 13.5416 3.50313 14.1699 3.50002 14.9475C3.49922 15.0795 3.51834 15.2109 3.55675 15.3372L5.56038 22.4017C5.8281 23.3478 6.69203 24.0007 7.67529 24H16.7091C17.692 23.997 18.5556 23.3473 18.831 22.4039L20.8372 15.3299C20.8465 15.2964 20.8531 15.2622 20.8571 15.2277L20.8801 15.0142C20.8827 14.9919 20.884 14.9695 20.884 14.9471C20.8806 14.1699 20.2491 13.5418 19.4719 13.5428ZM12.1922 9.84774L14.9636 13.5428H9.42083L12.1922 9.84774ZM12.1922 20.457C11.2916 20.4527 10.5646 19.7199 10.5675 18.8193C10.5704 17.9187 11.302 17.1905 12.2026 17.1919C13.1032 17.1934 13.8325 17.9238 13.8325 18.8244C13.8275 19.7267 13.0945 20.4555 12.1922 20.4552V20.457Z" fill="#133599"/>
<circle cx="20.5" cy="7" r="7" fill="#1AF5B1"/>
<path d="M20.4961 11.132C19.8581 11.132 19.2898 10.9743 18.7911 10.659C18.2924 10.3437 17.9001 9.889 17.6141 9.295C17.3354 8.69367 17.1961 7.97867 17.1961 7.15C17.1961 6.32133 17.3354 5.61 17.6141 5.016C17.9001 4.41467 18.2924 3.95633 18.7911 3.641C19.2898 3.32567 19.8581 3.168 20.4961 3.168C21.1341 3.168 21.7024 3.32567 22.2011 3.641C22.6998 3.95633 23.0884 4.41467 23.3671 5.016C23.6531 5.61 23.7961 6.32133 23.7961 7.15C23.7961 7.97867 23.6531 8.69367 23.3671 9.295C23.0884 9.889 22.6998 10.3437 22.2011 10.659C21.7024 10.9743 21.1341 11.132 20.4961 11.132ZM20.4961 9.625C20.9654 9.625 21.3321 9.42333 21.5961 9.02C21.8674 8.61667 22.0031 7.99333 22.0031 7.15C22.0031 6.30667 21.8674 5.68333 21.5961 5.28C21.3321 4.87667 20.9654 4.675 20.4961 4.675C20.0341 4.675 19.6674 4.87667 19.3961 5.28C19.1321 5.68333 19.0001 6.30667 19.0001 7.15C19.0001 7.99333 19.1321 8.61667 19.3961 9.02C19.6674 9.42333 20.0341 9.625 20.4961 9.625Z" fill="#133599"/>
</svg>
